PathFileType	4	(X/Y/Z)	pose_F01_0-87.trc
DataRate	CameraRate	NumFrames	NumMarkers	Units	OrigDataRate	OrigDataStartFrame	OrigNumFrames
30	30	5	21	m	30	65	87
Frame#	Time	CHip			RHip			RKnee			RAnkle			RBigToe			RSmallToe			RHeel			LHip			LKnee			LAnkle			LBigToe			LSmallToe			LHeel			Neck			Nose			RShoulder			RElbow			RWrist			LShoulder			LElbow			LWrist			
		X1	Y1	Z1	X2	Y2	Z2	X3	Y3	Z3	X4	Y4	Z4	X5	Y5	Z5	X6	Y6	Z6	X7	Y7	Z7	X8	Y8	Z8	X9	Y9	Z9	X10	Y10	Z10	X11	Y11	Z11	X12	Y12	Z12	X13	Y13	Z13	X14	Y14	Z14	X15	Y15	Z15	X16	Y16	Z16	X17	Y17	Z17	X18	Y18	Z18	X19	Y19	Z19	X20	Y20	Z20	X21	Y21	Z21	
65	2.1666666666666665	-0.26113131543430207	1.8864271327422555	-0.5813031791138209	-0.27289958731674135	1.8846776886289016	-0.5125584089727734	-0.2760439142370443	1.7453252096967709	-0.502433545594131	-0.28655627299382175	1.612302898986959	-0.4914384598081907	-0.2635435230364219	1.5734677669598682	-0.5208344272286797	-0.27093568928197764	1.5726887069733664	-0.4811744353326084	-0.2962073959346968	1.599290083826457	-0.4886949732022637	-0.25004276540945686	1.8898287081061425	-0.6473407688716687	-0.22990579088473723	1.7437907229102205	-0.6667012785672004	-0.2321627079802409	1.5979068276684794	-0.6608968316925354	-0.20402823577420284	1.561901212560745	-0.7073072243810204	-0.2039482304417581	1.573178003698058	-0.7293030217140429	-0.24238657724075788	1.5902457612468772	-0.6376132435811365	-0.2646254996954571	2.0431118023740216	-0.592938453551991	-0.24428153028992303	2.112847750028256	-0.6261594180967036	-0.2788117551781634	2.046115103446936	-0.5021537766239244	-0.290049503540058	1.9567961454909428	-0.44801547040670303	-0.2778078679534756	1.8892701830239755	-0.3936808777170252	-0.25051929346516866	2.0447466964539656	-0.6842982241965194	-0.25481147311273983	1.9617966898506287	-0.6878114715605733	-0.9919423801592154	1.8147307730805613	0.022636469873822333
66	2.2	-0.2647339871278899	1.884221852598115	-0.5819948226752866	-0.27375803768720935	1.8815745516928986	-0.5122975368882008	-0.2807871762573865	1.7452938763837127	-0.5061355558243517	-0.28757110019034077	1.6092120617327397	-0.49423966187724405	-0.2611889204451924	1.5717195688127747	-0.5233047355776376	-0.2689132123019857	1.5726846696223644	-0.48338551318070105	-0.295887827273429	1.5971015957925545	-0.4888236315725153	-0.25049423746864014	1.8884473528958465	-0.6473496773591647	-0.22805681194081664	1.7519954615969802	-0.6736001635076164	-0.24549297891786	1.6084072946018675	-0.6570666016367138	-0.2139715041516625	1.5746993993037472	-0.7114299896769085	-0.2184492298867367	1.5805297147698831	-0.7278546106182331	-0.25323328609202045	1.6005345094291967	-0.6433450132686939	-0.26668141324166156	2.0429827800615574	-0.5907502464661718	-0.2452598713250896	2.1115027990518143	-0.6287311052729629	-0.27995823253303936	2.0423065993322687	-0.4967246334370477	-0.29215642193364627	1.951408686198031	-0.4530631496474222	-0.2812846183008605	1.8776012825883146	-0.39289295456444295	-0.2526492055260688	2.0456187464193554	-0.6819416037181325	-0.2577831063506833	1.9602837623366207	-0.6884234870234003	-0.24848260447284695	1.8871341068538148	-0.7273913047189458
67	2.2333333333333334	-0.2642936367753687	1.8880942864579553	-0.5823837735257208	-0.27330982811342364	1.8856111016739046	-0.5126501705538965	-0.28104180682901725	1.7495126426523582	-0.5106156044599508	-0.28730233134072336	1.6098072916519384	-0.49476587969387537	-0.2641771969386283	1.5740950413240102	-0.5245763398723061	-0.2699110007411666	1.5723333581411836	-0.486599886547492	-0.2978605905824836	1.5992010465438253	-0.4872769442668928	-0.251032416814836	1.8914202629446615	-0.6506974542504487	-0.23252398937338925	1.7523728492528665	-0.6773271947523651	-0.25725612616561855	1.6197276180859688	-0.6651584928115853	-0.23381832527635724	1.5926229400994103	-0.7056593358279248	-0.23535814469766594	1.6005808335549554	-0.7254967883636315	-0.26407999494328305	1.6108232576115165	-0.6490767829562514	-0.26963859929588413	2.041688703888416	-0.5910748022989575	-0.24614018914116798	2.1116131492090138	-0.6317544308868279	-0.28120188566501164	2.0412267450813575	-0.499714676626098	-0.29319360417767876	1.9497965888833078	-0.4559601151594088	-0.2857761864853578	1.87273106678954	-0.40513285441809954	-0.2569164892109643	2.0455016749070047	-0.6776419534965041	-0.2549406712700506	1.9596252287087317	-0.6880846156534652	-0.9792877983469139	1.8178471012078807	0.011020416122057976
68	2.2666666666666666	-0.26747033614339966	1.8898067925245763	-0.5836067378572963	-0.27730338587989234	1.8871620693469848	-0.5172319305219906	-0.2829899346546994	1.7492632744270276	-0.5085793360864712	-0.28746519104394236	1.6108473075864498	-0.4945989068340533	-0.2602864246422346	1.572837377850699	-0.5287829675638611	-0.2659909726955274	1.5732951474987955	-0.4909534413163353	-0.29912823158899543	1.600470100730243	-0.490206467877947	-0.25307782230433495	1.8927312283435311	-0.6570863363290935	-0.23840392152399464	1.7472255001967727	-0.6751894949711141	-0.26901927341337706	1.6310479415700703	-0.6732503839864569	-0.24108433128182058	1.6013025976736674	-0.724200652008082	-0.2454578990576973	1.6061622034032825	-0.7408731777584897	-0.27492670379454565	1.621112005793836	-0.6548085526438088	-0.26967997037853825	2.0416492876328367	-0.5912531974056351	-0.24796975973248817	2.112830152700849	-0.6376350400524472	-0.28317276535213853	2.040070584656072	-0.5054033147969335	-0.2942759338394241	1.9500671309890285	-0.4592456532069141	-0.2869085198273214	1.8727443667423374	-0.41716939844610645	-0.25701515599496005	2.0455665679577066	-0.6777364267834155	-0.2585141470794877	1.9625315880113534	-0.6917172706009646	-0.9652130305515934	1.819332643422464	-0.008862245054744866
69	2.3	-0.2652235565265597	1.8899550578176183	-0.5943467837785013	-0.2774577891599648	1.8871915247243043	-0.5259101419288026	-0.28443147910415284	1.7499037930324957	-0.5114330278022727	-0.28805715325987674	1.6145909744703577	-0.49418733925045966	-0.26151257245075815	1.5737028283624521	-0.5317362081187552	-0.26901025676666346	1.5731186531293195	-0.4921861721518874	-0.2986299729027331	1.6042920515404737	-0.4865635928250745	-0.25392973752548476	1.892465401746692	-0.66045353501223	-0.2446839833840749	1.755633703199711	-0.6860923992888064	-0.2746349373691453	1.6407851632771981	-0.6848056123030682	-0.25713939178229844	1.6037191251139773	-0.7290457027191438	-0.5336370853638424	1.535643608238798	-0.47885404936939185	-0.28577341264580824	1.6314007539761555	-0.6605403223313662	-0.2695512474091308	2.0419477405839155	-0.5994165064602908	-0.24574662713424322	2.1110363744158582	-0.6482743554033197	-0.2841839398367698	2.0401686259943856	-0.5086883640092236	-0.2934443912599693	1.9502982941380722	-0.46460971387885946	-0.2922243967877327	1.8729831222592839	-0.4337342637450097	-0.2544738519687149	2.045976926021441	-0.6881097389419116	-0.25839811677388347	1.9578247845892132	-0.699704138797791	-0.9289223178693117	1.8147792920500223	-0.05147658232684996
